<mxfile host="app.diagrams.net" modified="2023-04-22T20:55:47.023Z" agent="Mozilla/5.0 (Macintosh; Intel Mac OS X 10_15_7) AppleWebKit/537.36 (KHTML, like Gecko) Chrome/112.0.0.0 Safari/537.36" etag="a3xE_iVxjRL5Nr6xGi70" version="21.1.7" type="github">
  <diagram name="Page-1" id="MwBRxflhHFFQ3yZeq8Po">
    <mxGraphModel dx="1114" dy="704" grid="1" gridSize="10" guides="1" tooltips="1" connect="1" arrows="1" fold="1" page="1" pageScale="1" pageWidth="850" pageHeight="1100" math="0" shadow="0">
      <root>
        <mxCell id="0" />
        <mxCell id="1" parent="0" />
        <mxCell id="P4_4rK3jkA7gDj0phg6B-1" value="device allreudce" style="rounded=0;whiteSpace=wrap;html=1;" vertex="1" parent="1">
          <mxGeometry x="120" y="160" width="120" height="40" as="geometry" />
        </mxCell>
      </root>
    </mxGraphModel>
  </diagram>
</mxfile>
